<?xml version="1.0" encoding="iso-8859-1"?>
<!-- Generator: Adobe Illustrator 18.0.0, SVG Export Plug-In . SVG Version: 6.00 Build 0)  -->
<!DOCTYPE svg PUBLIC "-//W3C//DTD SVG 1.1//EN" "http://www.w3.org/Graphics/SVG/1.1/DTD/svg11.dtd">
<svg version="1.1" id="Capa_1" xmlns="http://www.w3.org/2000/svg" xmlns:xlink="http://www.w3.org/1999/xlink" x="0px" y="0px"
	 viewBox="0 0 144.773 144.773" style="enable-background:new 0 0 144.773 144.773;" xml:space="preserve">
<g>
	<circle style="fill:#FC6121;" cx="72.387" cy="72.386" r="72.386"/>
	<g>
		<defs>
			<circle id="SVGID_1_" cx="72.387" cy="72.386" r="72.386"/>
		</defs>
		<clipPath id="SVGID_2_">
			<use xlink:href="#SVGID_1_"  style="overflow:visible;"/>
		</clipPath>
		<g style="clip-path:url(#SVGID_2_);">
			<path style="fill:#F1C9A5;" d="M107.529,116.94c-4.666-8.833-34.666-14.376-34.666-14.376s-30,5.543-34.666,14.376
				c-3.449,12.258-6.334,27.833-6.334,27.833h41h41C113.863,144.773,111.916,128.073,107.529,116.94z"/>
			<path style="fill:#E4B692;" d="M72.863,102.564c0,0,30,5.543,34.666,14.376c4.387,11.133,6.334,27.833,6.334,27.833h-41V102.564z
				"/>
			<rect x="64.697" y="84.606" style="fill:#F1C9A5;" width="16.334" height="27.336"/>
			<rect x="72.863" y="84.606" style="fill:#E4B692;" width="8.168" height="27.336"/>
			<path style="opacity:0.1;fill:#DDAC8C;" d="M64.697,97.273c1.469,4.217,7.396,6.634,11.75,6.634c1.576,0,3.107-0.264,4.584-0.747
				V84.606H64.697V97.273z"/>
			<path style="fill:#FFFFFF;" d="M107.529,116.94c-2.725-5.158-14.082-9.191-23.064-11.656c-0.352,6.11-5.402,10.96-11.602,10.96
				c-6.197,0-11.248-4.85-11.6-10.96c-8.984,2.465-20.34,6.498-23.066,11.656c-3.449,12.258-6.334,27.833-6.334,27.833h41h41
				C113.863,144.773,111.916,128.073,107.529,116.94z"/>
			<path style="fill:#F1C9A5;" d="M93.863,67.357c0-17.074-9.402-26.783-21-26.783c-11.598,0-21,9.709-21,26.783
				c0,7.153,2.189,22.991,5.924,26.219c2.566,2.279,10.939,6.183,15.033,6.183h0.002c0.014,0,0.027-0.002,0.043-0.002
				c0.014,0,0.027,0.002,0.041,0.002h0.002c4.096,0,12.469-3.903,15.033-6.183C91.824,89.474,93.863,73.923,93.863,67.357z"/>
			<path style="fill:#E4B692;" d="M72.865,99.757c0.014,0,0.027,0.002,0.041,0.002h0.002c4.096,0,12.469-3.903,15.033-6.183
				c3.883-4.103,5.922-19.653,5.922-26.219c0-17.074-9.402-26.783-21-26.783v59.183H72.865z"/>
			<path style="fill:#E4B692;" d="M90.668,79.197c-3.807-0.398-6.377-4.5-5.732-9.156c0.637-4.66,4.242-8.12,8.051-7.724
				c3.805,0.396,6.371,4.496,5.729,9.156C98.076,76.134,94.475,79.591,90.668,79.197z"/>
			<path style="fill:#F1C9A5;" d="M47.162,71.474c-0.643-4.66,1.924-8.76,5.727-9.156c3.811-0.396,7.416,3.063,8.055,7.724
				c0.643,4.656-1.93,8.758-5.734,9.156C51.402,79.591,47.801,76.134,47.162,71.474z"/>
			<g>
				<path style="fill:#262421;" d="M52.219,52.343c-2.051,4.316-1.789,10.841-1.789,10.841s2.502,0.69,3.355,3.823
					c0-7.545,1.025-16.064,7.262-16.657c5.623-0.533,5.195,1.922,11.816,1.922c0-8.969,0-13.922,0-13.922
					S58.867,38.35,52.219,52.343z"/>
				<path style="fill:#262421;" d="M93.508,52.343C87.617,38.35,72.863,38.35,72.863,38.35s0,4.953,0,13.922
					c6.621,0,6.193-2.455,11.816-1.922c6.236,0.593,7.26,9.112,7.26,16.657c0.855-3.133,3.346-3.909,3.346-3.909
					S95.361,56.747,93.508,52.343z"/>
			</g>
			<g>
				<polygon style="fill:#262421;" points="72.865,84.606 72.865,87.182 65.615,88.396 65.615,87.432 				"/>
				<polygon style="fill:#262421;" points="72.863,84.606 72.863,87.182 80.113,88.396 80.113,87.432 				"/>
			</g>
		</g>
	</g>
</g>
<g>
</g>
<g>
</g>
<g>
</g>
<g>
</g>
<g>
</g>
<g>
</g>
<g>
</g>
<g>
</g>
<g>
</g>
<g>
</g>
<g>
</g>
<g>
</g>
<g>
</g>
<g>
</g>
<g>
</g>
</svg>
