<?xml version="1.0" encoding="iso-8859-1"?>
<!-- Generator: Adobe Illustrator 18.0.0, SVG Export Plug-In . SVG Version: 6.00 Build 0)  -->
<!DOCTYPE svg PUBLIC "-//W3C//DTD SVG 1.1//EN" "http://www.w3.org/Graphics/SVG/1.1/DTD/svg11.dtd">
<svg version="1.1" id="Capa_1" xmlns="http://www.w3.org/2000/svg" xmlns:xlink="http://www.w3.org/1999/xlink" x="0px" y="0px"
	 viewBox="0 0 144.773 144.773" style="enable-background:new 0 0 144.773 144.773;" xml:space="preserve">
<g>
	<circle style="fill:#A6DAE8;" cx="72.387" cy="72.386" r="72.386"/>
	<g>
		<defs>
			<circle id="SVGID_1_" cx="72.387" cy="72.386" r="72.386"/>
		</defs>
		<clipPath id="SVGID_2_">
			<use xlink:href="#SVGID_1_"  style="overflow:visible;"/>
		</clipPath>
		<g style="clip-path:url(#SVGID_2_);">
			<g>
				<ellipse style="fill:#10303F;" cx="72.387" cy="62.721" rx="28.218" ry="29.828"/>
				<path style="fill:#F1C9A5;" d="M107.053,116.94c-4.666-8.833-34.666-14.376-34.666-14.376s-30,5.543-34.666,14.376
					c-3.449,12.258-6.334,27.833-6.334,27.833h41h41C113.387,144.773,111.438,128.073,107.053,116.94z"/>
				<path style="fill:#E4B692;" d="M72.387,102.564c0,0,30,5.543,34.666,14.376c4.386,11.133,6.334,27.833,6.334,27.833h-41V102.564
					z"/>
				<rect x="64.22" y="84.607" style="fill:#F1C9A5;" width="16.334" height="27.336"/>
				<rect x="72.387" y="84.607" style="fill:#E4B692;" width="8.167" height="27.336"/>
				<path style="opacity:0.1;fill:#DDAC8C;" d="M64.22,97.273c1.469,4.217,7.397,6.634,11.751,6.634
					c1.575,0,3.107-0.264,4.583-0.747V84.606H64.22V97.273z"/>
				<path style="fill:#F1C9A5;" d="M93.387,67.357c0-17.074-9.402-26.783-21-26.783c-11.598,0-21,9.709-21,26.783
					s9.402,30.917,21,30.917C83.984,98.274,93.387,84.432,93.387,67.357z"/>
				<path style="fill:#E4B692;" d="M90.94,79.195c-3.807-0.424-6.377-4.783-5.732-9.732c0.637-4.953,4.242-8.63,8.051-8.209
					c3.805,0.422,6.371,4.779,5.729,9.732C98.349,75.939,94.747,79.613,90.94,79.195z"/>
				<path style="fill:#F1C9A5;" d="M45.685,70.986c-0.643-4.953,1.924-9.31,5.727-9.732c3.811-0.421,7.416,3.256,8.055,8.209
					c0.642,4.949-1.93,9.309-5.734,9.732C49.925,79.613,46.323,75.939,45.685,70.986z"/>
				<path style="fill:#E4B692;" d="M93.387,67.357c0-17.074-9.402-26.783-21-26.783v57.7C83.984,98.274,93.387,84.432,93.387,67.357
					z"/>
				<path style="fill:#BF0020;" d="M107.053,116.94c-1.565-2.964-5.987-5.555-11.166-7.692c-2.604,10.561-12.136,18.394-23.5,18.394
					c-11.364,0-20.896-7.833-23.5-18.394c-5.179,2.138-9.601,4.729-11.166,7.692c-3.449,12.258-6.334,27.833-6.334,27.833h41h41
					C113.387,144.773,111.438,128.073,107.053,116.94z"/>
				<path style="fill:#10303F;" d="M72.387,37.698c0,0-28.662,2.166-23.334,26.922c0,0,19.08-3.051,23.334-13.461
					c4.254,10.41,23.334,13.461,23.334,13.461C101.049,39.864,72.387,37.698,72.387,37.698z"/>
			</g>
			<circle style="fill:#10303F;" cx="72.387" cy="35.226" r="14.203"/>
			<g>
				<g>
					<path style="fill:none;stroke:#FFFFFF;stroke-width:1.8263;stroke-linecap:round;stroke-linejoin:round;" d="M59.909,105.376
						c0,0.011,0,0.021,0,0.032"/>
					
						<path style="fill:none;stroke:#FFFFFF;stroke-width:1.8263;stroke-linecap:round;stroke-linejoin:round;stroke-dasharray:0.0612,2.4476;" d="
						M60.147,107.843c1.149,5.878,6.329,10.313,12.545,10.313c6.635,0,12.09-5.056,12.721-11.526"/>
					<path style="fill:none;stroke:#FFFFFF;stroke-width:1.8263;stroke-linecap:round;stroke-linejoin:round;" d="M85.473,105.408
						c0-0.011,0-0.021,0-0.032"/>
				</g>
			</g>
		</g>
	</g>
</g>
<g>
</g>
<g>
</g>
<g>
</g>
<g>
</g>
<g>
</g>
<g>
</g>
<g>
</g>
<g>
</g>
<g>
</g>
<g>
</g>
<g>
</g>
<g>
</g>
<g>
</g>
<g>
</g>
<g>
</g>
</svg>
